<svg width="375" height="592" viewBox="0 0 375 592" fill="none" xmlns="http://www.w3.org/2000/svg">
<g filter="url(#filter0_d_1_879)">
<path fill-rule="evenodd" clip-rule="evenodd" d="M24 44C24 30.7452 34.7452 20 48 20H327C340.255 20 351 30.7452 351 44V199C344.373 199 339 204.373 339 211C339 217.627 344.373 223 351 223V283C344.373 283 339 288.373 339 295C339 301.627 344.373 307 351 307V540C351 553.255 340.255 564 327 564H48C34.7451 564 24 553.255 24 540V307C30.6273 307 35.9999 301.627 35.9999 295C35.9999 288.373 30.6273 283 24 283V223C30.6273 223 35.9999 217.627 35.9999 211C35.9999 204.373 30.6273 199 24 199V44Z" fill="white"/>
</g>
<defs>
<filter id="filter0_d_1_879" x="0" y="0" width="375" height="592" filterUnits="userSpaceOnUse" color-interpolation-filters="sRGB">
<feFlood flood-opacity="0" result="BackgroundImageFix"/>
<feColorMatrix in="SourceAlpha" type="matrix" values="0 0 0 0 0 0 0 0 0 0 0 0 0 0 0 0 0 0 127 0" result="hardAlpha"/>
<feOffset dy="4"/>
<feGaussianBlur stdDeviation="12"/>
<feComposite in2="hardAlpha" operator="out"/>
<feColorMatrix type="matrix" values="0 0 0 0 0 0 0 0 0 0 0 0 0 0 0 0 0 0 0.25 0"/>
<feBlend mode="normal" in2="BackgroundImageFix" result="effect1_dropShadow_1_879"/>
<feBlend mode="normal" in="SourceGraphic" in2="effect1_dropShadow_1_879" result="shape"/>
</filter>
</defs>
</svg>
